<svg width="28" height="27" viewBox="0 0 28 27" fill="none" xmlns="http://www.w3.org/2000/svg">
<path d="M20.7334 9.04002C20.7334 7.27899 20.0338 5.59008 18.7886 4.34484C17.5433 3.09959 15.8544 2.40002 14.0934 2.40002C12.3323 2.40002 10.6434 3.09959 9.39817 4.34484C8.15293 5.59008 7.45336 7.27899 7.45336 9.04002C7.45336 16.7867 4.13336 19 4.13336 19H24.0534C24.0534 19 20.7334 16.7867 20.7334 9.04002Z" stroke="black" stroke-opacity="0.5" stroke-width="2" stroke-linecap="round" stroke-linejoin="round"/>
<path d="M16.0079 23.4267C15.8133 23.7621 15.5341 24.0405 15.1981 24.234C14.8621 24.4276 14.4811 24.5294 14.0934 24.5294C13.7056 24.5294 13.3247 24.4276 12.9887 24.234C12.6527 24.0405 12.3734 23.7621 12.1788 23.4267" stroke="black" stroke-opacity="0.5" stroke-width="2" stroke-linecap="round" stroke-linejoin="round"/>
</svg>
