<svg width="29" height="28" viewBox="0 0 29 28" fill="none" xmlns="http://www.w3.org/2000/svg">
<path d="M14.1345 6.97467C13.4505 6.97467 12.7819 7.1775 12.2131 7.5575C11.6444 7.93751 11.2012 8.47763 10.9394 9.10956C10.6776 9.74148 10.6092 10.4368 10.7426 11.1077C10.876 11.7785 11.2054 12.3948 11.6891 12.8784C12.1727 13.3621 12.7889 13.6914 13.4598 13.8249C14.1306 13.9583 14.826 13.8898 15.4579 13.6281C16.0899 13.3663 16.63 12.9231 17.01 12.3544C17.39 11.7856 17.5928 11.117 17.5928 10.433C17.5918 9.51612 17.2271 8.63708 16.5787 7.98875C15.9304 7.34041 15.0514 6.97571 14.1345 6.97467ZM14.1345 12.1622C13.7925 12.1622 13.4582 12.0608 13.1738 11.8708C12.8894 11.6807 12.6678 11.4107 12.5369 11.0947C12.4061 10.7788 12.3718 10.4311 12.4385 10.0957C12.5053 9.76023 12.6699 9.45213 12.9118 9.2103C13.1536 8.96847 13.4617 8.80378 13.7971 8.73706C14.1326 8.67034 14.4802 8.70459 14.7962 8.83546C15.1122 8.96634 15.3822 9.18797 15.5722 9.47233C15.7622 9.75669 15.8637 10.091 15.8637 10.433C15.8631 10.8914 15.6808 11.331 15.3566 11.6551C15.0324 11.9793 14.5929 12.1616 14.1345 12.1622Z" fill="black" fill-opacity="0.5"/>
<path d="M20.78 3.78233C19.1369 2.13965 16.9435 1.16382 14.6233 1.0432C12.303 0.922577 10.0203 1.6657 8.2157 3.12915C6.41112 4.5926 5.2126 6.67264 4.85144 8.9678C4.49029 11.263 4.99211 13.6105 6.26005 15.5575L12.7934 25.5873C12.9388 25.8105 13.1376 25.9939 13.3718 26.1208C13.606 26.2477 13.8681 26.3142 14.1345 26.3142C14.4009 26.3142 14.663 26.2477 14.8972 26.1208C15.1314 25.9939 15.3301 25.8105 15.4755 25.5873L22.0091 15.5575C23.1856 13.7514 23.7056 11.5958 23.4818 9.45202C23.258 7.30821 22.3041 5.30648 20.78 3.78233ZM20.5603 14.6136L14.1345 24.478L7.70866 14.6136C5.74174 11.5941 6.1636 7.55327 8.71174 5.00501C9.42386 4.29287 10.2693 3.72797 11.1997 3.34256C12.1302 2.95715 13.1274 2.75878 14.1345 2.75878C15.1416 2.75878 16.1389 2.95715 17.0693 3.34256C17.9998 3.72797 18.8452 4.29287 19.5573 5.00501C22.1054 7.55327 22.5272 11.5941 20.5603 14.6136Z" fill="black" fill-opacity="0.5"/>
</svg>
