<svg width="189" height="84" viewBox="0 0 189 84" fill="none" xmlns="http://www.w3.org/2000/svg">
<g filter="url(#filter0_d_96_1243)">
<rect x="17" y="17" width="149" height="44" rx="10" fill="white"/>
</g>
<path d="M118.667 32.6558C119.093 32.2359 119.672 32 120.276 32H129.103C129.707 32 130.286 32.2359 130.713 32.6558C131.14 33.0757 131.379 33.6453 131.379 34.2391V36.0483C131.379 36.2857 131.184 36.4782 130.942 36.4782C130.701 36.4782 130.505 36.2857 130.505 36.0483V34.2391C130.505 33.8733 130.358 33.5225 130.095 33.2638C129.832 33.0051 129.475 32.8598 129.103 32.8598H120.276C119.904 32.8598 119.548 33.0051 119.285 33.2638C119.022 33.5225 118.874 33.8733 118.874 34.2391V45.0942C118.874 45.46 119.022 45.8109 119.285 46.0695C119.548 46.3282 119.904 46.4735 120.276 46.4735H129.103C129.475 46.4735 129.832 46.3282 130.095 46.0695C130.358 45.8109 130.505 45.46 130.505 45.0942V43.285C130.505 43.0476 130.701 42.8551 130.942 42.8551C131.184 42.8551 131.379 43.0476 131.379 43.285V45.0942C131.379 45.6881 131.14 46.2576 130.713 46.6775C130.286 47.0974 129.707 47.3333 129.103 47.3333H120.276C119.672 47.3333 119.093 47.0974 118.667 46.6775C118.24 46.2576 118 45.6881 118 45.0942V34.2391C118 33.6453 118.24 33.0757 118.667 32.6558Z" fill="black"/>
<path d="M133.576 35.7443C133.747 35.5764 134.023 35.5764 134.194 35.7443L137.871 39.362C137.873 39.3641 137.876 39.3663 137.878 39.3684C137.959 39.4516 138 39.5591 138 39.6666C138 39.6666 138 39.6666 138 39.6666C138 39.7857 137.951 39.8935 137.871 39.9713L134.194 43.589C134.023 43.7569 133.747 43.7569 133.576 43.589C133.405 43.4211 133.405 43.1489 133.576 42.9811L136.508 40.0966H125.012C124.77 40.0966 124.575 39.9041 124.575 39.6667C124.575 39.4292 124.77 39.2368 125.012 39.2368H136.508L133.576 36.3523C133.405 36.1844 133.405 35.9122 133.576 35.7443Z" fill="black"/>
<path d="M138 39.6666C138 39.5591 137.959 39.4516 137.878 39.3684C137.876 39.3663 137.873 39.3641 137.871 39.362L134.194 35.7443C134.023 35.5764 133.747 35.5764 133.576 35.7443C133.405 35.9122 133.405 36.1844 133.576 36.3523L136.508 39.2368H125.012C124.77 39.2368 124.575 39.4292 124.575 39.6667C124.575 39.9041 124.77 40.0966 125.012 40.0966H136.508L133.576 42.9811C133.405 43.1489 133.405 43.4211 133.576 43.589C133.747 43.7569 134.023 43.7569 134.194 43.589L137.871 39.9713C137.951 39.8935 138 39.7857 138 39.6666ZM138 39.6666C138 39.6666 138 39.6666 138 39.6666ZM120.276 32C119.672 32 119.093 32.2359 118.667 32.6558C118.24 33.0757 118 33.6453 118 34.2391V45.0942C118 45.6881 118.24 46.2576 118.667 46.6775C119.093 47.0974 119.672 47.3333 120.276 47.3333H129.103C129.707 47.3333 130.286 47.0974 130.713 46.6775C131.14 46.2576 131.379 45.6881 131.379 45.0942V43.285C131.379 43.0476 131.184 42.8551 130.942 42.8551C130.701 42.8551 130.505 43.0476 130.505 43.285V45.0942C130.505 45.46 130.358 45.8109 130.095 46.0695C129.832 46.3282 129.475 46.4735 129.103 46.4735H120.276C119.904 46.4735 119.548 46.3282 119.285 46.0695C119.022 45.8109 118.874 45.46 118.874 45.0942V34.2391C118.874 33.8733 119.022 33.5225 119.285 33.2638C119.548 33.0051 119.904 32.8598 120.276 32.8598H129.103C129.475 32.8598 129.832 33.0051 130.095 33.2638C130.358 33.5225 130.505 33.8733 130.505 34.2391V36.0483C130.505 36.2857 130.701 36.4782 130.942 36.4782C131.184 36.4782 131.379 36.2857 131.379 36.0483V34.2391C131.379 33.6453 131.14 33.0757 130.713 32.6558C130.286 32.2359 129.707 32 129.103 32H120.276Z" stroke="black" stroke-linecap="round" stroke-linejoin="round"/>
<path d="M46.7 42.8H52.4V45H44.4V31H46.7V42.8ZM58.3745 45.26C56.9079 45.26 55.6612 44.7533 54.6345 43.74C53.6079 42.7267 53.0945 41.48 53.0945 40C53.0945 38.52 53.6079 37.2733 54.6345 36.26C55.6612 35.2467 56.9079 34.74 58.3745 34.74C59.8545 34.74 61.1012 35.2467 62.1145 36.26C63.1412 37.2733 63.6545 38.52 63.6545 40C63.6545 41.48 63.1412 42.7267 62.1145 43.74C61.1012 44.7533 59.8545 45.26 58.3745 45.26ZM56.1545 42.26C56.7545 42.86 57.4945 43.16 58.3745 43.16C59.2545 43.16 59.9945 42.86 60.5945 42.26C61.1945 41.66 61.4945 40.9067 61.4945 40C61.4945 39.0933 61.1945 38.34 60.5945 37.74C59.9945 37.14 59.2545 36.84 58.3745 36.84C57.4945 36.84 56.7545 37.14 56.1545 37.74C55.5545 38.34 55.2545 39.0933 55.2545 40C55.2545 40.9067 55.5545 41.66 56.1545 42.26ZM73.5677 35H75.6877V44.54C75.6877 46.06 75.1877 47.2267 74.1877 48.04C73.1877 48.8533 71.9743 49.26 70.5477 49.26C68.241 49.26 66.661 48.4533 65.8077 46.84L67.6677 45.76C68.1877 46.7867 69.161 47.3 70.5877 47.3C71.521 47.3 72.2477 47.0533 72.7677 46.56C73.301 46.08 73.5677 45.4067 73.5677 44.54V43.32C72.7543 44.48 71.5943 45.06 70.0877 45.06C68.6743 45.06 67.481 44.56 66.5077 43.56C65.5343 42.5467 65.0477 41.3267 65.0477 39.9C65.0477 38.4733 65.5343 37.26 66.5077 36.26C67.481 35.2467 68.6743 34.74 70.0877 34.74C71.5943 34.74 72.7543 35.32 73.5677 36.48V35ZM68.1077 42.14C68.721 42.74 69.481 43.04 70.3877 43.04C71.2943 43.04 72.0477 42.74 72.6477 42.14C73.261 41.54 73.5677 40.7933 73.5677 39.9C73.5677 39.0067 73.261 38.26 72.6477 37.66C72.0477 37.06 71.2943 36.76 70.3877 36.76C69.481 36.76 68.721 37.06 68.1077 37.66C67.5077 38.26 67.2077 39.0067 67.2077 39.9C67.2077 40.7933 67.5077 41.54 68.1077 42.14ZM82.9253 45.26C81.4586 45.26 80.212 44.7533 79.1853 43.74C78.1586 42.7267 77.6453 41.48 77.6453 40C77.6453 38.52 78.1586 37.2733 79.1853 36.26C80.212 35.2467 81.4586 34.74 82.9253 34.74C84.4053 34.74 85.652 35.2467 86.6653 36.26C87.692 37.2733 88.2053 38.52 88.2053 40C88.2053 41.48 87.692 42.7267 86.6653 43.74C85.652 44.7533 84.4053 45.26 82.9253 45.26ZM80.7053 42.26C81.3053 42.86 82.0453 43.16 82.9253 43.16C83.8053 43.16 84.5453 42.86 85.1453 42.26C85.7453 41.66 86.0453 40.9067 86.0453 40C86.0453 39.0933 85.7453 38.34 85.1453 37.74C84.5453 37.14 83.8053 36.84 82.9253 36.84C82.0453 36.84 81.3053 37.14 80.7053 37.74C80.1053 38.34 79.8053 39.0933 79.8053 40C79.8053 40.9067 80.1053 41.66 80.7053 42.26ZM96.8984 35H99.0584V45H96.8984V43.72C96.2451 44.7467 95.2118 45.26 93.7984 45.26C92.6518 45.26 91.7251 44.8933 91.0184 44.16C90.3118 43.4267 89.9584 42.42 89.9584 41.14V35H92.1184V40.92C92.1184 41.6667 92.3184 42.24 92.7184 42.64C93.1184 43.04 93.6651 43.24 94.3584 43.24C95.1184 43.24 95.7318 43.0067 96.1984 42.54C96.6651 42.06 96.8984 41.3333 96.8984 40.36V35ZM107.164 37.08H104.684V41.88C104.684 42.2933 104.778 42.5933 104.964 42.78C105.151 42.9533 105.424 43.0533 105.784 43.08C106.158 43.0933 106.618 43.0867 107.164 43.06V45C105.511 45.2 104.324 45.06 103.604 44.58C102.884 44.0867 102.524 43.1867 102.524 41.88V37.08H100.684V35H102.524V32.84L104.684 32.2V35H107.164V37.08Z" fill="black"/>
<defs>
<filter id="filter0_d_96_1243" x="0" y="0" width="189" height="84" filterUnits="userSpaceOnUse" color-interpolation-filters="sRGB">
<feFlood flood-opacity="0" result="BackgroundImageFix"/>
<feColorMatrix in="SourceAlpha" type="matrix" values="0 0 0 0 0 0 0 0 0 0 0 0 0 0 0 0 0 0 127 0" result="hardAlpha"/>
<feOffset dx="3" dy="3"/>
<feGaussianBlur stdDeviation="10"/>
<feComposite in2="hardAlpha" operator="out"/>
<feColorMatrix type="matrix" values="0 0 0 0 0 0 0 0 0 0 0 0 0 0 0 0 0 0 0.08 0"/>
<feBlend mode="normal" in2="BackgroundImageFix" result="effect1_dropShadow_96_1243"/>
<feBlend mode="normal" in="SourceGraphic" in2="effect1_dropShadow_96_1243" result="shape"/>
</filter>
</defs>
</svg>
