<svg width="368" height="399" viewBox="0 0 368 399" fill="none" xmlns="http://www.w3.org/2000/svg">
<path d="M269.5 167.5L268.5 166.5L268 164.5L267.5 164L266.5 163V163.5L266 164.5L265.5 165.5L264.5 166.5L264 168L263.5 168.5L262.5 169.5L261 170.5L260 171L259.5 171.5L259 173L258.5 174.5L259 176V179L258.5 180L257.5 182L257 183L254.5 184.5L253.5 185.5L252 186L251.5 186.5L251 188L250.5 189.5L249.5 190.5L249 191L249.5 192.5C249.667 192.833 250.1 193.6 250.5 194C250.9 194.4 250.667 195.167 250.5 195.5V196.5L251 197.5L251.5 198L252 199.5L253 200.5L253.5 201L254 202.5L254.5 203.5L255 204.5L254.5 205.5L254 207L253.5 207.5L253 208.5L252 209.5L250.5 210L250 211L249 212L247.5 212.5L246.5 213.5L245.5 214H244.5L243.5 214.5L242.5 215.5V216V217L243 218L244 218.5L245.5 219H247.5L249 218.5H250.5H251.5L253.5 218L254 217H255.5L257 215.5L258 214.5V213.5L258.5 212V211L259.5 210L261 208L262.5 207L264.5 206.5L265.5 205.5L266.5 205L268.5 204.5L269 203.5L269.5 202.5L269 202V201L268.5 200.5L268 199.5L267.5 198.5V197.5V197L267 196L266.5 195.5V195V194V192V191L265 190V186.5L264.5 185.5V184L265 183L267 181.5H268H269L271 181H273L275.5 180.5L276.5 179.5H280.5L281 180.5L283 179.5H284L285 180L286 180.5H287.5L289 180L291.5 179.5L292.5 178.5L293.5 178L294.5 177L295 175.5V174.5V173V171.5L294.5 170.5L294 169.5V168.5L293.5 168L293 167.5L291.5 167H290H286.817H286L285 166.5L284.723 166H284.5L283.5 165.5H283H281.5H280.5L280 165L279 164.5H278.5H278L277.5 165.5L276.5 166L276 167L275.5 167.5V168.5L275 169.5L274.5 170H273.5L273 171L272 171.5L271.5 172H271H270.5V171.5L270 171V170L269.5 168.5V167.5Z" fill="#FF6F6F" stroke="black"/>
<path d="M241 254.5V256.5L241.5 256L242.5 255.5L245.5 252.5H255.5L256.5 252H257L260 252.5C260.8 252.5 261 252.833 261 253L262 254L263 254.5L263.5 255.5V256L264 256.5L265 257L266 258L267.5 260L268.5 261.5L270.5 264L272 265L272.5 264.5L273 264V263L273.5 262.5L274.5 262L275 260.5L275.5 260L276.5 258.5L277.5 256.5L278 255L278.5 253.5L278 253L277.5 252H276.5L275.5 251L274.5 250.5H273.5L273 249.5L273.5 248.5L274 248L275 247V246.5V245L275.5 243.5L276 242.5L276.5 241.5L277 240.5L276.5 240L276 239L275 238L274 237.5L273.5 236.5L273 236V235.5V235V234L274 233.5L273.5 233L273 232.5V232V231L272.5 230V229V228L273 226C272.833 226 272.5 226.1 272.5 226.5C272.5 226.9 272.167 227 272 227L271 228L270.5 228.5L269.5 229L268.5 229.5L267.5 230.5C267 230.833 265.9 231.5 265.5 231.5H263.5L262.5 231L262 230.5L261 231H260.5L259.5 231.5L258.5 232L257 232.5L256.5 233H255C254.5 233 254 233.5 253.5 233.5H252C251.5 233.5 251 234 250.5 234.5C250.1 234.9 249.333 235.333 249 235.5L246.5 236L245 236.5L243 237L241 238L240 238.5L238.5 239L237.5 239.5H236.5L236 240.5L235.5 241V242L236.5 242.5L237 243.5L237.5 244.5C237.667 244.5 238.1 244.7 238.5 245.5C239 246.5 238.5 246 238.5 247C238.5 247.8 238.833 247.667 239 247.5V248.5L239.5 249.5L240 251L240.5 251.5L241 253V254.5Z" fill="#FF0101" stroke="black"/>
<path d="M163.5 344.5L161.5 343L161 342V340.5V339V337.5L160.5 336.5L160 335L159 333.5L158.5 332L157.5 330.5V329L156.5 327L155.5 325L155 324L154.5 322.5V321.5L155 320L155.5 318.5L156.5 317.5L157.5 316V315V313.5L158.5 312.5V311.5V310C158.5 309.6 158.833 309.833 159 310V309V307.5V306.5L160 305.5V305V304V303H160.5V300.5L161.5 298.5C161.667 298.333 162 297.9 162 297.5C162 297.1 162.667 296.667 163 296.5L164 294.5L166 294C166.333 293.833 167.3 293.5 168.5 293.5H169.5L171 293H172L173.5 292.5H174L174.5 291.5H175.5V290.5V289.5L176 288L177.5 287H179H180H181.5L182 288H184H186H187.5H189L190.5 288.5H191.5H194H196H199.5H201.5H203.5V287C203.833 286.667 204.5 285.8 204.5 285C204.5 284.2 205.833 283.333 206.5 283C207 282.833 208.1 282.3 208.5 281.5C208.9 280.7 209.667 279.833 210 279.5C210.333 278.833 211.1 277.5 211.5 277.5C211.9 277.5 213 276.167 213.5 275.5L215 274L216.5 273L218 272C218.833 272 220.7 271.8 221.5 271C222.3 270.2 223.5 270.667 224 271H226H228L229.5 270L231 268.5L232.5 267L234 266L235.5 264.5L237.5 263.5L238 262L239 260.5L239.5 258.5L240.5 257.5L241 256H242L243 255L244 254L245 253L245.5 252.5H246H247H248.5H251H252.5H254.5H255.5L256.5 252L261 252.5L261.5 254C261.833 254.333 262.7 255 263.5 255C264.3 255 263.833 255.667 263.5 256L265.5 257.5L266.5 258.5L267.5 260.5L269 262L270.5 263.5L271.5 265L272.5 266V266.5L272 267L271.5 267.5L270.5 268.5V269.5L269.5 270V271L269 272L267.5 274L266.5 275L265.5 276.5L263.5 278.5L261.5 280.5L260 281.5L259.5 282.5L258.5 283H257.5H256.5L256 281.5L255.5 280.5L254.5 278.5V277.5L253.5 276L253 275L252.5 274L251.5 272.5H250.5L249.5 271H248.5L247 269.5H245.5L244 268.5L243 267.5L241 267V266.5H239.5H239L238 267L237.5 267.5L236 268.5L235.5 270L234.5 271L233.5 272.5C233.167 272.667 232.4 273.2 232 274C231.6 274.8 231.5 275.333 231.5 275.5V281L230.5 281.5L230 283L230.5 284.5C230.833 284.833 231.5 285.6 231.5 286C231.5 286.5 232.5 286.5 233 287C233.4 287.4 234.5 288.167 235 288.5L236 289.5L237.5 291.5C237.667 291.833 238 292.6 238 293V294.5V296.5L238.5 298.5V301L239 303C239.167 303.667 239.5 305.1 239.5 305.5C239.5 305.9 239.833 307 240 307.5C240 308 240.1 309.1 240.5 309.5C241 310 241 310 241 310.5C241 310.9 241.333 312 241.5 312.5L243 314C243.4 314.4 243.167 314.833 243 315L243.5 316.5L244 317.5L245 318.5L247 320L248 321.5L249.5 322.5V324C249.667 324.333 250.2 325.1 251 325.5C251.8 325.9 252 326.333 252 326.5L253 327.5L254 329L255 330L256.5 331L257 332L257.5 332.5L259.5 333.5L260 334.5H262L262.5 335.5L264.5 336.5L265.5 337.5L267.5 339C267.333 339.667 267 341.2 267 342V344C267 344.5 266.5 345 266.5 345.5C266.5 345.9 265.833 347 265.5 347.5L265 349.5L264.5 350.5L263.5 352.5L263 354C262.833 354.5 262.5 355.6 262.5 356C262.5 356.4 262.167 356.833 262 357L261 358.5L259.5 360L258.5 361L257.5 362.5L257 363.5L256.5 364V365L255 366H254L253 367L252 367.5L250.5 369L249.5 370L248.5 370.5L247 372L246 373.5L244.5 374.5L242.5 375L241.5 376L240 376.5L239 377L238 378V379.5L237 381L236 383L235 384C234.833 384.5 234.4 385.5 234 385.5C233.6 385.5 233.5 386.167 233.5 386.5L231.5 387.5H231H230L229 388.5L228.5 389H227.5L226.5 390L226 390.5L225 391.5L224 392.5H223H221.5H220.5V393.5H219.5H218H217H215L213.5 394.5L212.5 395.5L211.5 396L210 397H209L207.5 397.5L206 397L205 396H204.5H204H203H202L201.5 397.5H200L199 397H197.5L197 396L196.5 395.5V394.5H196H195.5L194.5 393.5L194 392.5H193.5L193 392V390.5L192.5 389V388.5V387.5L191.5 386.5L190.5 385.5L191.5 383.5L192.5 382L193 381L194 379.5V374.5L194.5 373.5C194.667 372.833 195.2 371.3 196 370.5C196.8 369.7 196 368.167 195.5 367.5L193 366L189 363.5L184.5 360L182 358.5L180 357L177.5 355V353.5L176 352V350.5L175 349.5V347.5L173.5 346.5L172.5 346H170V347.5L168 346L166.5 344.5H165H163.5Z" fill="#E00000" stroke="black"/>
<path d="M276 264.5H275C274.833 264.167 274.4 263.7 274 264.5V265.5L273.5 266H272.5V265V264.5L273 263.5L273.5 263L274 262.5L274.5 262L275 260.5L276.5 259L277 257.5L277.5 256L278.5 254C278.9 253.2 278 252.667 277.5 252.5C277.5 252.5 276.5 251.5 276 251.5C275.6 251.5 275.167 251.167 275 251C274.833 251 274.3 250.9 273.5 250.5C272.7 250.1 273.167 249 273.5 248.5L274.5 247.5L275 247C274.833 246.833 274.6 246.3 275 245.5C275.4 244.7 275.5 244.167 275.5 244L276 242.5L276.5 241.5L277 241V240L276 239L275.5 238.5L274.5 237.5L274 237L273.5 236.5L273 235.5V234.5L274 233.5L273.5 233L273 232.5L272.5 230.5V229.5V228L273 227V225.5L274 224.5L274.5 223L275.5 221.5L276.5 220L278 219L279 218.5H280L281.5 218H283H284C284.167 217.833 284.5 217.4 284.5 217C284.5 216.6 285.167 216.167 285.5 216L286 215.5L286.5 214L287 213V211.5C287 211.167 287.1 210.5 287.5 210.5C288 210.5 288 209 288 208.5V207.5C288.167 207.333 288.5 206.9 288.5 206.5C288.5 206.1 288.167 205.333 288 205C287.833 204.833 287.5 204.4 287.5 204C287.5 203.6 287.167 203.5 287 203.5C287 203.333 286.9 203 286.5 203C286.1 203 286.333 202.667 286.5 202.5V201.5L286 201V200.5V200V199.5L286.5 198.5L287 198L287.5 197.5L288.5 197L289 196L289.5 195L290.5 194L291 193L292 192L293.5 191L295 190.5L296.5 189.5H298H305L305.5 189V187.5V186V184.5L305 183.5V182V181L305.5 180L306 178.5V177.5L306.5 176.5L307 175.5L307.5 175L309 174.5H311H313.5L315 174L315.5 173H316.5H317.5H318.5L319 172.5H320.5V172H322.5H323.5L326 171.5H326.5L327.5 172H328.5L330 172.5L340.5 173H342V172L342.5 171.5H343.5H344.5V172.5L345 173L346 172H346.5L347 172.5V173L347.5 174L348 175.5V176.5V177.5V179V180.5V182V183L347.5 184.5V186L347 187V188C346.833 188.333 346.4 189 346 189C345.6 189 345.833 189.667 346 190V191V192.5L346.5 194.5L347 195L347.5 196.5V197L348 198L348.5 199L349 199.5L349.5 200.5L350 202L350.5 202.5L351 203.5L352 204.5L352.5 205L353 206V207C353 207.5 353.5 207.5 353.5 208C353.5 208.4 353.833 208.167 354 208V209L354.5 209.5L355 210V210.5V223V224.5V225L355.5 225.5L356 226V227V227.5V228.5V229C356.167 229.333 356.5 230.1 356.5 230.5V231.5L357 232.5V233.5L356.5 234L356 234.5L355 235L354.5 235.5C354.333 235.667 353.9 236 353.5 236C353 236 353.5 236.5 353 237L352.5 237.5H351.5L350 238L349.5 237.5H349L348.5 237H347.5L347 236.5H346.5L346 236H345.5L345 235.5L344.5 235H338L337.5 236L336 236.5H335H334H333.5L333 237H332L331.5 237C331.333 237.167 330.9 237.4 330.5 237C330.1 236.6 329.667 236.833 329.5 237H329L328 237.5H327C326.6 237.5 326.5 237.833 326.5 238C326.167 238.167 325.5 238.6 325.5 239C325.5 239.4 325.167 239.5 325 239.5L323.5 240.5L322.5 241L321.5 242L320.5 243L320 243.5L319 244.5L318.5 245L317 246L316 246.5L314.5 247.5L313 248.5L312 249L310.5 250.5L309.5 251L308.5 251.5L307.5 252.5L307 253L306.5 254L305.5 254.5L305 256L303.5 256.5L302.5 257.5L301 258.5H299C298.5 258.5 298 259 297.5 259C297.1 259 296.333 259.333 296 259.5H294.5L292 260H291L289 260.5H288C287.833 260.667 287.4 261 287 261H286.5L285.5 261.5L284.5 262C284.333 262 283.9 262.1 283.5 262.5C283 263 283 262.5 282.5 262.5C282.1 262.5 281.667 262.833 281.5 263L280 263.5H279L278.5 264H278L277.5 264.5H277H276Z" fill="#FFB3B3" stroke="black"/>
<path d="M258.5 221V226L259 227.5L260 229L261 230L262.275 231L263.5 231.5H265L267 231L268 230L269.5 229L270.5 228L272 227L273 225.5L274.5 223L276 220.5L277.5 219.5L279 219L280 218.5L282 218H284L284.5 217L285.5 216L286.5 214.5L287 213V211.5L287.5 210.5L288 209.5V208V207L288.5 206L287.5 204L286.5 202.5L286 201.5V200.5L285.5 200L284.5 199.5H283L282.5 199H281H279.5H278L277.5 199.5L276 200.5L275 201L274 201.5L273.5 202H272.5H271.5H270.5L269.5 202.5L269 204L267 205L265.5 205.5L264 206.5L262 207L261 208L260 209.5L259 210.5L258.5 211L258 213V215V217V218.5V220L258.5 221Z" fill="#FF9494" stroke="black"/>
<path d="M265 188V190H265.5L266.5 191C266.9 191.4 266.667 192.167 266.5 192.5V194V195.5L267.5 197V199L268 200L269.5 202.022H272L273.5 201.861L275.5 201L277 200L278.5 199L281.5 199.291H283L286 200C285.6 199.2 287.5 197.667 288.5 197L289 196L289.5 195L291 193L292.5 191.5L294.5 190.5L295.5 190L296.5 189.5H303H305L305.5 189V186.5V185L305 184V183V182V181L305.5 179.5L306 178.5V177.5L306.5 176L307.5 175L309 174.5H310.5H311.5H313.5L314.5 174L315.5 173.5L316 173H317H318.5L319.5 172.5L320.5 172H321.5H323L324 171.772L326.5 171.5V171V170V169V168.5L326 167V166.5L325.5 166L325.333 164.5L325 164V163V162L325.5 161L326 160V159V158V157L325.5 156L325 155V154L324 153L323.5 151.5L322 150L320.5 147.5L319.5 146.5L317.5 143.5L317 144L316.5 144.5L315.5 145.5L315 147L313.5 148L312.5 149.5C312.167 149.833 311.5 150.6 311.5 151C311.5 151.4 310.5 152.5 310 153L308.5 154.5L307.5 157L306 159L305 161L304 162.5L303 163.5C302.5 164 302.5 164 302.5 164.5C302.5 164.9 301.833 165.667 301.5 166L300.5 167L299 168L298 168.5H297L296 168H295L294.5 169V170V171L295 171.5V172.5V173.5V175L294.5 176.5L294 177.5L293 178.5H292.5L291 179.5L290 180L288.5 180.5H287H286.5H285.5L284.5 179.5H284H283L282.5 180H282L281 180.5L280.5 179.5H279H278H276.5L275.5 180.5L273.5 181H272L270 181.5H267.5C267.333 181.667 266.9 182 266.5 182C266.1 182 265.667 182.667 265.5 183L264.5 183.5V184.5V185V186L265 186.5V188Z" fill="#FFC2C2" stroke="black"/>
<path d="M259 231.5L261.5 230.5L260.5 229.5L260 228.5L259 227L258.5 225.5V224V223V221.5L258 219.5V218.5V217V214L257 215.5L256.5 216L255.5 217H254L253.5 218L251.5 218.5H249.5L248.5 219H247H245.5L244 218.5L243 218L242.5 217V215.5L244 214H246L247.5 212.5L249 212L250 211L250.5 210L252 209.5L253 208.5C253.333 208.167 254 207.4 254 207C254 206.6 254.333 205.833 254.5 205.5L255 204.5L254.5 203.5L254 201.5L253.5 200.5L252 199.5L251.5 198L250.5 196.5V194.5L250 193L249 191L250 190L251 188.5L252 186L254.5 185L256 184L257.5 182L258.5 181L259 179.5V177.5V176L258.5 174.5L259 172.5L260 171L263 169L264.5 167.5L265.5 165.5L266.5 164.5V163.5V163L265.5 162C265.333 161.833 264.9 161.5 264.5 161.5H263.5L262.5 163.5H260H259L257 164L255.5 164.5L254.5 165.5H253H250H246H244L242.5 166L241 166.5H239L236.5 167.5L234.5 169L233 170L231.5 171L228 172.5L226.5 173.5L224.5 174.5L223 175.5L222 176.5H221H219.5H218H217V177L217.5 179L218 180.5L219.5 182L221 183L223 185.5L224.5 186.5L227.5 190L230.5 194.5L231.5 195.5L232.5 196.5V198.5V200V201L231.5 204.5L231 211.5V212.5V214L230.5 215.5L230 217L228.5 219.5C228.5 220.167 228.6 221.6 229 222C229.5 222.5 229 224 229 225V227C229.5 227.333 230.5 228.1 230.5 228.5C230.5 228.9 230.833 229.667 231 230L232 231.5V233V233.5L232.5 235L233 236L233.5 237L234.5 238.5L235 239.5L235.5 241L236.5 239.5L238.5 239L243.5 237L246.5 236L249 235.5L250 235L251.5 233.5H253L255 233L257 232.5L259 231.5Z" fill="#FC4646" stroke="black"/>
<path d="M169.5 280L171.5 282.5L172 283.5L172.787 285L174 286L175 287L175.5 287.5H176H176.5L178 287H179.5H180.5L181.5 287.5V288H182H184H188L190.5 288.5H203L203.5 288V287.5L204 286.5L204.5 285L205.5 283.5L207.5 282.5L208.5 281.5L210 280L211 278.5L211.5 277.5L213 276.5L214 275L216 273.5L217.5 272.5L219 272L220.5 271.5L221.5 271L223 270.5L224.5 271H226H228L229 270.5L231.5 268L234 265.5L236.5 264L238 263L238.5 261.5V260.5C239.167 259.667 240.5 257.9 240.5 257.5V256V253.5L240 251.5L239.5 250L239 248.5V247C238.833 246.667 238.5 245.9 238.5 245.5C238.5 245.1 238.167 244.667 238 244.5L236 242L235.5 241V240L233 236L232.5 234.5L232 233V231.5L231 230L230 228L229.5 227L229 225.5V223.5V222L228.5 220.5V219.5L229 218.5L230 217L230.5 215.5L231 214V212.5V210.5L231.5 208V204.5L232 202L232.5 200.5V198.5V196.5L231.5 195.5L230.5 194.5L230 193.5L229.5 192.5L228 191L226.5 188.5L225 187C224.5 186.5 223.4 185.5 223 185.5C222.6 185.5 221.833 184.5 221.5 184L219.5 182L218.5 180.5L217.5 179.5L217 178L216.5 177L216 176.5L215 176L213.5 175.5H212L210.5 175H209H208L207 174.5L205.5 173.5L203.5 173H202.5H200.5H199.5L199 172L186 171.5L185.5 172L185 173L184 174.5C183.667 174.833 183 175.6 183 176C183 176.4 182.667 176.833 182.5 177L181.5 178.5L181 181.5L180.5 184L180 185.5L179 186.5L178 187.5L177.5 188.5V190.5L176.5 192.5L176 194.5L175.5 195.5L174.5 196.5V198.5L174 200.5L173.5 202L172 202.5V205.5L171.5 206L171 208L170 209.5V211.743V213.5L169 214.5L168 215L166.5 217L165 219L163 222L160 225L157.5 226.5L155 228L152.5 230L145.5 236L144 237.5L142.5 238.5L141.5 240L140 241C139.833 241.333 139.4 242.1 139 242.5L138 243.5C137.5 244 137.5 245 137 245.5L136 246.5V249.5V250.5L136.5 251.5L137.5 252.5L138.5 253L142.5 253.5L144.5 254L145.5 255C146 255.333 147 256.1 147 256.5C147 256.9 148 257.667 148.5 258L149.5 259.5L150 262C150.167 262.333 150.6 263.3 151 264.5C151.5 266 151 266 151 266.5C151 267 151.5 267 152 268.5C152.5 270 152.5 270 152.5 270.5C152.5 270.9 153.167 271.667 153.5 272L155.5 273L157 274H158L160 274.5L162 275L163.5 275.5L165.5 277C166.167 277.333 167.6 278.1 168 278.5L169.5 280Z" fill="#EC0101" stroke="black"/>
<path d="M76.5 152L79 153H88.25H97.5C97.3333 153.333 97 154.2 97 155V157.5V159L95 161L93.5 162.5L92 165.5L91.5 169L90 172C89.8333 172.833 89.6 174.6 90 175C90.5 175.5 89 176 89 177C89 177.8 87.6667 179 87 179.5L85 180.5C84.6667 180.833 83.6 182 82 184C81 185 82 185.5 81.5 186C81 186.5 82 188 82 189.5V192C82 192.4 83.3333 195.167 84 196.5L87 201L87.5 202L88 203V205L89 206.5L90 209V211.5L91 214L92 216L92.5 218H95C95.5 218.5 96.8 219.5 98 219.5C99.2 219.5 99.1667 220.833 99 221.5C99.5 221.833 100.5 222.7 100.5 223.5C100.5 224.5 101.5 224.5 101.5 225.5C101.5 226.3 103.5 226.5 104.5 226.5V229V230.5C104.5 230.9 103.833 232 103.5 232.5L102 233L101.5 234V236L100.5 237.5L99.5 238.5L99 240V242.5C99 243.5 98.5 244 98 244.5L96.5 246L95.5 247.5L95 250L93.5 252C93.5 253 93.2 255.4 92 257C91.6 257.4 92.1667 257.833 92.5 258L93.5 259L94 261V262.5L94.5 264.5C94.8333 264.667 95.5 265.3 95.5 266.5V267.5H98L99 268.5L99.5 269.5V271V273.5C99.5 273.9 99.1667 274.667 99 275L98 278L96.5 280.5L95.5 281.5L94 282.5H92.5H90.5L89.5 281.5H87.5H86L84.5 282L83.5 283.5L82.5 284.5L81 285L79.5 287L78 288L75.5 289.5L74 291L74.5 292.5V294.5L75.5 295V297L76.5 298L77 300V302L76.5 304.5L74.5 306L73 308L70 311H67.5L65.5 312L63 311H61.5L60.5 312L59.5 312.5L59 314.5L59.5 315V316.5V318L58 319L57.5 320.5C57.3333 321 57 322.1 57 322.5C57 322.9 57.6667 324 58 324.5L59.5 325.5H62V328L60.5 329L59.5 330H58L57.5 330.5L57 331C56.5 330.833 55.3 330.2 54.5 329C53.7 327.8 53.1667 328.5 53 329H51H49C48.2 329 48.3333 328 48.5 327.5V324.5C48.5 323.333 48.6 320.9 49 320.5C49.4 320.1 48.8333 317.667 48.5 316.5L47.5 315C47.1667 314.667 46.3 313.9 45.5 313.5C44.5 313 46 312.5 45.5 312C45 311.5 45 311 45 310.5C45 310.1 44 310.333 43.5 310.5H41.5C40.5 310.5 40.5 310 39.5 310.5C38.5 311 38.5 310 37.5 309.5C36.7 309.1 36.8333 308.333 37 308H35L33.5 309.5L33 311C32.5 311.167 31.3 311.4 30.5 311C29.5 310.5 30 310 28 308C27 307.5 28 307 28 306C28 305 29 305.5 29 305V303C29 302.6 27.6667 301.833 27 301.5C26.8333 301 26.4 299.9 26 299.5C25.6 299.1 25.1667 298.333 25 298L24 299.5C23.6667 299.667 22.9 300 22.5 300H20.5C19.7 300 18.8333 299.667 18.5 299.5C18 299.167 17 298.4 17 298C17 297.5 16.5 296.5 15.5 296C14.5 295.5 14.5 295.5 14.5 295V292.5C14.5 292.1 14.1667 291.333 14 291L13 290.5C12.6667 290.167 11.7 289.5 10.5 289.5C9 289.5 9.5 289.5 9.5 289V287V285C9.5 284.2 8.5 283.667 8 283.5L5.5 282.5C6.5 283 4.3 282.4 3.5 282C2.7 281.6 2.5 281.167 2.5 281L1.5 279L2.5 276L3.5 274.5L5 273L6 272.5V271L5 270V267.5L5.5 264.5L6 263.5H8L9 262L9.5 260.5H10.5L12 262H13H14.5H16.5V260.5L17.5 258H18.5C19 257.667 20.1 256.9 20.5 256.5C20.9 256.1 21.3333 255.333 21.5 255V253V249.5C21.3333 249 21.1 247.9 21.5 247.5C21.9 247.1 22.3333 246.333 22.5 246C22.8333 245.667 23.5 244.9 23.5 244.5C23.5 244.1 24.1667 243.333 24.5 243L26.5 242.5L28 241.5L29 240L30 238.5L31 236.5L32 234V232.5L32.5 230.5V228L34 226.5V223.5C34 223 34 222 33.5 221.5C33.1 221.1 32.3333 220.667 32 220.5L29 220C28.6667 219.5 28 218.4 28 218C28 217.6 27.3333 216.5 27 216C26.6667 215.333 25.8 213.9 25 213.5C24 213 23.5 210 23.5 209.5C23.5 209.1 22.8333 206.667 22.5 205.5L23.5 201.5V198.5C23.8333 197.667 24.5 195.9 24.5 195.5C24.5 195 25.5 193 26 192.5C26.4 192.1 26.8333 191 27 190.5L28 188.5L29 185L32.5 181.5L36 179.5L41 176L42.5 175L43.5 172V170L44.5 167.5L45.5 165L47.5 163L49 161L51 157.5L52.5 155L54.5 153L56.5 152H71.5H76.5Z" fill="#660101" stroke="black"/>
<path d="M53 343L54 339.5V338L54.5 337L55.5 335.5V335L56 333L55.5 331.5L55 330L55.5 330.5L56.5 331L57.5 331.5L58 330.5L59.5 330L60.5 329L62 327.5V325.5H61L59.5 325L58.5 324.5L57.5 323.5L57 322.5L57.5 320.5L58.5 319L59.5 318V316.5V315L59 314L59.5 312.5L61 311.5L61.5 311H62.5L65.5 312L68 311H70L70.5 310.5L72 309L73.5 307L74.5 306.5L75.5 305L76.5 304L77 301.5V299L76 298L75.5 296.5V295L74.5 294.5V293.5L74 292V291L75 290L77 288.5L80 286.5L80.5 285L82 284.5L83.5 283.5L84 282.5L85 281.5H86.5H88.5L90 282L91.5 282.5L94 282L95.5 281.5C96 281 97 279.9 97 279.5C97 279.1 97.6667 278 98 277.5L99 275.5L99.5 273.5V271L99 269L98 267.5H97H95.5V266.5L95 265L94.5 264L94 263V262V261L93.5 260L93 259L92.5 258.5L92 257.5L92.5 257V256.5L93.5 254.5V252.5L94 251.5L95 250.268V249L95.5 247.5L96.5 246.5L97.5 245L99 243.5V242V240L99.5 238.5L100.5 237.5L101.5 236.5V235.5V234L102 233L103 232.5L104 232L104.5 230.5V226.5H103.5L102 226L101.5 225L100.5 224L99.5 221.5L99 220L96.5 219L95 218H92.5C92.1667 217.167 91.5 215.4 91.5 215C91.5 214.6 90.8333 213.167 90.5 212.5L90 211L89.5 208.5C89.3333 207.833 88.9 206.5 88.5 206.5C88.1 206.5 88 205.5 88 205V203.5L87.5 202C87 201.167 85.9 199.5 85.5 199.5C85.1 199.5 84.6667 198.167 84.5 197.5L82.5 193L82 192V190C81.8333 189.5 81.5 188.4 81.5 188V186.5V185.5L82 184L83 183C83.5 182.5 84.5 181.4 84.5 181C84.5 180.6 85.5 179.833 86 179.5L87.5 179L88.5 178L89.5 177V176L90 175V174V172L91 170.5L91.5 169L92 167.5L92.2684 165.5V164.5L93.5 162.5L95 161L96.5 160L97 159V157V154.5L97.5 153L118.5 152.5H119L120 153.5L121 155L121.5 156.5V159.5L121 160.5L120.5 162V162.5H119.5L118 163L117.5 164L116 164.5V166.231C115.833 166.654 115.6 167.9 116 169.5C116.5 170.5 116 170 116.5 170.5C116.9 170.9 116.667 171.667 116.5 172L117.5 173L119 174.5C119.333 175.167 120 176.6 120 177C120 177.5 119.5 179 119.5 179.5V182C119.5 182.5 119.5 184 119 185C118.5 186 119 186 119.5 186.5C119.9 186.9 120 187.667 120 188L120.5 189.5L121.5 190L122.5 191L123.5 190.5L125.5 189.5L127 188.5L128 187L129.5 185.5L130.5 184L134 182.5L135.5 182L136.5 182.5L137.5 183L138 184.5L139 185.5L140 186L141.5 186.5L143 186L146.5 185.5L148 184.5L150.5 183L151.5 181.5L152.5 179L154.5 177.5L156 176.5L158 175.5L160 174.5L161.5 173.5L163 173L164.5 172L167 170.5L168 169.5L170 168.5L172.5 169L174.5 170H176H177.5H178.5L179.5 170.5H181.5L186 171L185.5 172L184.5 173.5L184 175L183 176.5L182 177.5L181.5 178.5L181 180V181.5L180.5 184L180 185.5L179 186L178 187L177.5 189L177 191L176.5 192.5L176 194.5L174.5 196V199L173.5 201.5L172.5 202L172 203V204V205.5L171 207.5L170.5 209L170 210V211L169.5 213.5L168 214.5L166.5 216.5L164.5 219C164.167 219.5 163.5 220.6 163.5 221C163.5 221.5 162 222.5 161.5 223C161.1 223.4 160.667 224.167 160.5 224.5L158.5 226.5L156.5 227L155 228L151.5 231L150 232L147.5 234.5L145.5 236L144 237.5L142.5 238.5L142 239L141 240L139.5 241.5L138.5 242.5C138.333 242.833 137.9 243.6 137.5 244C137 244.5 137 244.5 137 245C137 245.4 136.333 246.167 136 246.5V248V250.5V251L136.5 252L137 252.5V253.5L136 254H134.5H133.5H132L130.5 254.5L127.5 255H127L125.5 255.5L124.5 256L123.5 256.5L122.5 257.5L121 259L119.5 260L118 262C117.5 262.333 116.4 263.1 116 263.5C115.6 263.9 115.5 264.333 115.5 264.5L115 265.5C114.667 266 113.9 267.1 113.5 267.5C113 268 113 268 112.5 268C112.1 268 111.667 268.667 111.5 269V270.5V271.5V273C111.5 273.4 112.167 273.5 112.5 273.5V275.5V278.5V280.5V282.5V283.5L111.5 285L111 286L109 289.5L108 290.5L107 292.5L105.5 294C105.167 294.5 104.5 295.6 104.5 296C104.5 296.4 103.833 297.5 103.5 298L103 301L101.5 306.5L101 308.5L100.5 311.5L100 314L99 316L98.5 317.5C98.3333 318 98 319.1 98 319.5C98 320 98 320.5 97.5 321C97 321.5 97 322.5 97 323.5C97 324.5 96 325 96 325.5C96 326 95.5 326.5 95.5 327.5C95.5 328.5 95 328.5 95 329C95 329.5 94.5 330 94.5 330.5V332.5V334H93.5H92.5L91 335.5V336.5V337.5C91 337.833 91.1 338.6 91.5 339C91.9 339.4 91.6667 339.833 91.5 340L90.5 340.5H89.5H89H88.5L88 340L87 339L86 338L84.5 337.5L84 338L83 338.5C82.6667 338.667 81.4 339 79 339C78 339 77 339 76 338.5C75 338 74.5 338.5 74 338.5C73.5 338.5 73.5 339 73 339H72L71.5 338.5L70.5 337.5H70L69 338.5L68.5 339.5L68 340.5V342L69 343V344V345.5H72.5V347.5H74.5C74.8333 348 75.3 349.2 74.5 350C73.7 350.8 72.8333 352.333 72.5 353C71.8333 353.667 70.2 355.2 69 356C67.5 357 66.5 358.5 65.5 359C64.5 359.5 63.5 360 63 361C62.6 361.8 61.1667 362 60.5 362H59C58 361.5 56 360.4 56 360V357.5V356L54 354V353L53 351.5V350V347.5V345.5V343Z" fill="#7C0000" stroke="black"/>
<path d="M118.5 305.5L119.5 303L120 301.5L120.5 301L121 299.5V299L121.5 298L122 297.5L122.5 297L123 296.5L123.5 295.5H125H127H128H129.5L131 295C131.333 294.833 132 294.4 132 294C132 293.6 132.667 293.167 133 293L134 291.5V290.5V288.5C134.167 288 134.5 286.9 134.5 286.5V284.5V282.5L133.5 281.5V278V277L134.5 274.5L135 272L136.5 270L137.5 267.5L138 266.5V264.5V264L137.5 263L136 264.5L135.5 266.5H134.5H132.5H131.5H129.5C129 266.833 127.9 267.5 127.5 267.5C127.1 267.5 126.667 268.167 126.5 268.5L125.5 270V271.5L123.5 273.5C123.333 273.667 122.6 274.1 121 274.5C120.2 274.9 120 275.333 120 275.5L119 277L118 278L117.5 279.5C117.333 279.833 116.9 280.6 116.5 281C116.1 281.4 115.333 281.5 115 281.5L114.5 282H113.5L112.5 283.5L112 284.5L109.5 288.5C109.167 289.167 108.4 290.6 108 291C107.6 291.4 107.167 292.167 107 292.5L106 293.5C105.833 293.833 105.4 294.6 105 295C104.6 295.4 104.5 296.167 104.5 296.5L103.5 299L103 301L102 303.5L101 310L100 312V314C99.6667 315 99 317.1 99 317.5C99 317.9 98.3333 318.333 98 318.5V320L97.5 321L97 322H98H99H101H103.5C103.833 322.167 104.6 322.4 105 322C105.5 321.5 106 322.5 107 322.5H107.5H109L110 321L110.5 320L111.5 318.5C112 317.667 113.1 315.9 113.5 315.5C113.9 315.1 113.667 314.667 113.5 314.5V313.5L114.5 312.5L115 311.5L115.5 310L116.5 308.5L117.5 307L118.5 305.5Z" fill="#B60101" stroke="black"/>
<path d="M137 257V259L137.5 261V262.5L137 263.5L136.5 264L136 265L135.5 265.5V266.5H131.5H130H129L127.5 267.5L126.5 268.5L125.5 270L125 271.5L124 273L122 274L120.5 275L119.5 276L118.5 278L117.5 279.5L116.5 281L115 281.5L114.5 282H113.5L112.5 282.5V282V281V279V277.5V275.5V274L111.5 273.5L111 273V271.5L111.5 269.5V268.5L113 267.5L114 266.5L115 265L116 263.5L117.5 262.5L119 261L120.5 259.5L121.5 258L124 256L126.5 255.5L129 254.5L131.5 254H133.5H135.5C135.667 254.333 136.1 255.1 136.5 255.5C136.9 255.9 137 256.667 137 257Z" fill="#A30000" stroke="black"/>
<path d="M123 340.5L122 342.5V343L121.5 344V344.5L121 345H119.5H118.5C118.1 345 118 345.333 118 345.5H117H116.5L115.5 345H115L114.5 344.5L114 344L113.5 343.5V342V341.5V341L113 340.5L112.5 340H112H111C110.6 340 110.5 339.667 110.5 339.5L110 338.5C109.833 338.333 109.5 337.9 109.5 337.5V336.5V336L109 335L108 334.5C107.833 334.333 107.4 334 107 334C106.5 334 106.5 333.5 106 333C105.6 332.6 105.5 332.833 105.5 333L105 333.5L104.5 334V335L103.5 336.5H102.5L101 337H100H99H98H97H96.5V336L96 335.5L95.5 335V334.5L94.5 334V333.5V332.5V330L95 329L95.5 327.5L96 325.5L96.5 324V322.5V322H97H98.5H102.5L104 322.5L105 322H105.5L106.5 322.5H107.5H109L111 319.5L112 318L113 316.5V315.5L113.5 315V313.5L114.5 313L115.5 311V310L117 307.5L118 306.5L118.5 305.5L119 304.5L119.5 303L120 302L120.5 300.5L121 299.5L121.5 298.5L122 297.5L123 296.5L123.5 295.5H129.5L130.5 295L131.5 294.5L132 294L132.5 293.5L133.5 292.5L134 291.5V290.5V289.5V288L134.5 286.5V285.5V283L134 282L133.5 281.5V280V278.5V277.5V276.5L134.5 274L135 273V272L135.5 271L136.5 270L137 268.5L137.5 267.5L138 266V265V263.5L137.5 262.5V262V261L137 259.5V258L136.5 256.5V255.5L135.5 254.5H136V254L136.5 253.5L137 253L136.5 252L137 252.5L138 253H139H140L141.5 253.5H143.5L144.5 254.5L145.5 255L147 256.5C147.5 257 147.5 257 147.5 257.5C147.5 257.9 148.167 258 148.5 258L149 259.5L149.5 260.5L150 261.5C150 261.833 150.1 262.6 150.5 263C150.9 263.4 151 264.5 151 265V266V266.5L151.5 267V268.5L152.5 270V271L153.5 272L154.5 272.5L156.5 274H157.5L159 274.5H161L163 275.5L164.5 276.5L166.5 277.5L170 281L171.5 282.5L172 284L173 285L175 287L176 287.5L175.5 289V290L175 291V292L174 292.5L172.5 293H171L169 293.5L166.5 294H164.5L164 295L163 296L162.5 297C162.167 297.333 161.5 298.1 161.5 298.5C161.5 298.9 161.167 299.333 161 299.5L160.5 301V302.5C160.5 303 160.5 303 160 303C159.6 303 159.833 303.667 160 304V305.5C160 305.9 159.333 306.333 159 306.5V307.5V309.5V310.5L158.5 311.5V312.5L158 313.5L157.5 314V315V316L156.5 317L156 318C155.667 318.333 155 319.1 155 319.5V320.5C155 320.9 154.667 321.333 154.5 321.5V323L155 324.5L156 326L157.5 329L158 330V332L159 333V334L160.5 336L161 337.5V338.5V340V341L161.5 343L161 342.5L160.5 342L160 341.5L159 340.5L158 340L156.5 339.5L154.5 338.5L153 338L152 337.5L150 336L149 335.5L148 334L146.5 333L145 332L143.5 331C143.167 331.167 142.4 331.5 142 331.5C141.5 331.5 141.5 332 141 332C140.5 332 140.5 332.5 140.5 333V334L139.5 335L138.5 335.5L137 336.5H135.5H133H131.5L131 337L129.5 337.5L128 338L127 338.5L125.5 339L124.5 339.5L123.5 340L123 340.5Z" fill="#C70000" stroke="black"/>
<path d="M347.5 159.5C347.5 159.9 347.167 160.667 347 161L345.52 162.973L344.5 163.5V164L344 165L343.5 166V167L344 168C344 168.167 344.1 168.5 344.5 168.5C344.9 168.5 344.667 168.833 344.5 169L345.5 169.5C345.5 169.667 345.6 170 346 170C346.4 170 346.5 170.667 346.5 171V171.5L346 172L345.5 172.5L345 173L344.5 172.5V172L344 171.5H343.5H342.5H342V172.5V173H340H338H336C335.6 173 334.833 172.667 334.5 172.5H332H330L328.5 172H328H327L326.5 171.5V170.5V169C326.5 168.6 326.167 168.167 326 168V167C326 166.6 325.667 166.167 325.5 166V165C325.5 164.667 325.4 163.9 325 163.5C324.6 163.1 324.833 162.667 325 162.5L325.5 161.5L326 160.5V159.5V159V156.5C326 156.1 325.667 155.667 325.5 155.5L325 154.5L324.5 153.5L324 153V152L323.5 151L322.5 150.5L322 149.5L321.5 149L320.5 148L320 146.5L319 146L318 144.5L317.5 143.5C317.333 143.167 316.9 142.5 316.5 142.5C316.1 142.5 316 141.833 316 141.5L315 141L314 140L312.5 138.5C312 138 311 138 310.5 137.5C310 137 310 137.5 309.5 137C309 136.5 308 137 307.5 137C307 137 307 137.5 306 137.5H304C303.2 137.5 302.667 138.167 302.5 138.5L301 139C300.667 139.167 299.9 139.6 299.5 140C299 140.5 299 140 298.5 140.5C298 141 297.5 140.5 296.5 141H295.5H294.5H294L293.5 140.5L293 139.5L292 138.5L291.5 137V136V134.5L292 133.5V132.5L293 131.5L294 130L295 129L296.5 128L298 127L298.5 126L299 124.5V123.5V122.5V122L298.5 121C298.333 120.833 298 120.4 298 120C298 119.6 297.667 119.167 297.5 119L296.5 118H295.5C295.333 117.667 294.9 117 294.5 117C294.1 117 293.667 116.667 293.5 116.5L293 116L292.5 115.5L293 114.5L294.5 114L295.5 113.5L296.5 112.5L297.5 111.5L299.5 110.5L301 109.5L302 109V107.5L302.5 106.5V106L303 105V104V103C303 102.6 303.333 102.5 303.5 102.5V101.5L304 101L303.5 99.5L303 98.5L302.5 97.5L302 96.5V96V95.5V94.5V93.5V93V92.5H303H304L305.5 92H307H308.5H310.5L311 92.5L312 93L313 93.5L314.5 94H315.5L316.5 94.5H318H319.5L320.5 95L321 95.5V96L322.5 97.5L323.5 99L324.5 100L326 101L327 102.5V103.5C327.167 103.667 327.5 104.1 327.5 104.5C327.5 105 328 106 328 106.5V108.5V110L327.5 111V112.5L328 114C327.833 114.167 327.5 114.6 327.5 115V116V117L327 118.5V120V121.5V122.5V123L327.5 124L328.5 124.5H329L330 125.5L330.5 126L331.5 126.5C331.667 126.667 332.1 127 332.5 127C332.9 127 333.333 127.333 333.5 127.5L334.5 128H336H336.5L338 128.5C338.333 128.833 339.1 129.5 339.5 129.5C339.9 129.5 340.667 130.167 341 130.5H342L343.5 131.5L344.5 132H345.5H347L348.5 131L350 130.5L351 131L353 131.5L354.5 132L356 132.5L357.5 133L358.5 133.5L359 134.5V135.5L358.5 136.5C358.5 136.833 358.4 137.5 358 137.5C357.6 137.5 357.833 138.5 358 139L357.5 140L357 141L356 142.5L355.5 143.5C355.333 143.833 354.9 144.5 354.5 144.5C354 144.5 354 145 354 145.5C354 145.9 353.667 146.333 353.5 146.5L353 147.5C352.833 147.833 352.5 148.6 352.5 149V150.5C352.5 151.5 352 151.5 352 152V152.5L350.5 154L350 155.5L349.5 156.5L348 157.5C347.833 158 347.5 159.1 347.5 159.5Z" fill="#FFD2D2"/>
<path d="M345.5 163L345.52 162.973M345.52 162.973L347 161C347.167 160.667 347.5 159.9 347.5 159.5C347.5 159.1 347.833 158 348 157.5L349.5 156.5L350 155.5L350.5 154L352 152.5C352 152.5 352 152.4 352 152C352 151.5 352.5 151.5 352.5 150.5C352.5 149.5 352.5 149.5 352.5 149C352.5 148.6 352.833 147.833 353 147.5L353.5 146.5C353.667 146.333 354 145.9 354 145.5C354 145 354 144.5 354.5 144.5C354.9 144.5 355.333 143.833 355.5 143.5L356 142.5L357 141L357.5 140L358 139C357.833 138.5 357.6 137.5 358 137.5C358.4 137.5 358.5 136.833 358.5 136.5L359 135.5V134.5L358.5 133.5L357.5 133L356 132.5L354.5 132L353 131.5L351 131L350 130.5L348.5 131L347 132H345.5H344.5L343.5 131.5L342 130.5H341C340.667 130.167 339.9 129.5 339.5 129.5C339.1 129.5 338.333 128.833 338 128.5L336.5 128H336H334.5L333.5 127.5C333.333 127.333 332.9 127 332.5 127C332.1 127 331.667 126.667 331.5 126.5L330.5 126L330 125.5L329 124.5H328.5L327.5 124L327 123V122.5V121.5V120V118.5L327.5 117C327.5 116.833 327.5 116.4 327.5 116C327.5 115.5 327.5 115.5 327.5 115C327.5 114.6 327.833 114.167 328 114L327.5 112.5V111L328 110V108.5C328 108 328 106.9 328 106.5C328 106 327.5 105 327.5 104.5C327.5 104.1 327.167 103.667 327 103.5V102.5L326 101L324.5 100L323.5 99L322.5 97.5L321 96V95.5L320.5 95L319.5 94.5H318H316.5L315.5 94H314.5L313 93.5L312 93L311 92.5L310.5 92H308.5H307H305.5L304 92.5H303H302V93V93.5V94.5V95.5V96V96.5L302.5 97.5L303 98.5L303.5 99.5L304 101L303.5 101.5V102.5C303.333 102.5 303 102.6 303 103C303 103.5 303 103.5 303 104C303 104.4 303 104.833 303 105L302.5 106V106.5L302 107.5V109L301 109.5L299.5 110.5L297.5 111.5L296.5 112.5L295.5 113.5L294.5 114L293 114.5L292.5 115.5L293 116L293.5 116.5C293.667 116.667 294.1 117 294.5 117C294.9 117 295.333 117.667 295.5 118H296.5L297.5 119C297.667 119.167 298 119.6 298 120C298 120.4 298.333 120.833 298.5 121L299 122V122.5V123.5V124.5L298.5 126L298 127L296.5 128L295 129L294 130L293 131.5L292 132.5V133.5L291.5 134.5V136V137L292 138.5L293 139.5L293.5 140.5L294 141C294 141 294.1 141 294.5 141C294.9 141 295.333 141 295.5 141C295.667 141 296.1 141 296.5 141C297.5 140.5 298 141 298.5 140.5C299 140 299 140.5 299.5 140C299.9 139.6 300.667 139.167 301 139L302.5 138.5C302.667 138.167 303.2 137.5 304 137.5C305 137.5 305 137.5 306 137.5C307 137.5 307 137 307.5 137C308 137 309 136.5 309.5 137C310 137.5 310 137 310.5 137.5C311 138 312 138 312.5 138.5C312.9 138.9 313.667 139.667 314 140L315 141L316 141.5C316 141.833 316.1 142.5 316.5 142.5C316.9 142.5 317.333 143.167 317.5 143.5L318 144.5L319 146L320 146.5L320.5 148L321.5 149L322 149.5L322.5 150.5L323.5 151L324 152V153L324.5 153.5L325 154.5L325.5 155.5C325.667 155.667 326 156.1 326 156.5C326 156.9 326 158.333 326 159V159.5V160.5L325.5 161.5L325 162.5C324.833 162.667 324.6 163.1 325 163.5C325.4 163.9 325.5 164.667 325.5 165V166C325.667 166.167 326 166.6 326 167C326 167.4 326 167.833 326 168C326.167 168.167 326.5 168.6 326.5 169C326.5 169.4 326.5 170.167 326.5 170.5V171.5L327 172H328H328.5L330 172.5H332H334.5C334.833 172.667 335.6 173 336 173C336.4 173 337.5 173 338 173H340H342V172.5V171.5H342.5H343.5H344L344.5 172V172.5L345 173L345.5 172.5L346 172L346.5 171.5V171C346.5 170.667 346.4 170 346 170C345.6 170 345.5 169.667 345.5 169.5L344.5 169C344.667 168.833 344.9 168.5 344.5 168.5C344.1 168.5 344 168.167 344 168L343.5 167V166L344 165L344.5 164V163.5L345.52 162.973Z" stroke="black"/>
<path d="M362.5 111L359.5 116.5L359 117L358.5 118L358 119V121.5L357.5 124C357.5 124.667 357.6 126 358 126C358.4 126 358.167 127.333 358 128L358.5 129L359 131V134C358.833 133.833 358.4 133.5 358 133.5C357.6 133.5 356.833 132.833 356.5 132.5L354.5 132L353.5 131.5L352 131H351L350 130.5H349.5L348 131.5L347 132H346H344.5L343.5 131.5L342.5 130.5H341.5L340 130L338.5 129L337 128H334.5C334 128 332.9 127.9 332.5 127.5C332 127 332 127 332 126.5C332 126.1 331.333 126 331 126L330 125.5L329 125L328 124.5L327.5 124L327 123.5V122V121V120V118.5L327.5 117.5V117V116V115L328 114L327.5 113.5V112.5V111.5L328 110.5V109V108V106.5C328 106.1 327.667 105.667 327.5 105.5V104L327 103L326.5 102L326 101L325 100.5L324 99.5L323.5 99L322.5 98.1244V97.5V97L321.5 96L321 95.5L320.5 95L319.5 94.5H318.5H317.5H316C315.5 94.5 315.5 94 315 94C314.6 94 314.167 93.6667 314 93.5L313 93H311.5L310.5 92H310H309H307.5H306L304 92.5H303H302L301.5 92H301L300.5 91.5L299.5 91C299.167 90.8333 298.4 90.5 298 90.5H297.5H296.5L295.5 89.5C295 89 295 89.5 294.5 89.5H294H293.5H292.5H291.5L290.5 89L289.5 88.5L288.5 88H287.5H286L284.5 87.5H283L280 87H279H277C276.5 86.8333 275.3 86.5 274.5 86.5C273.7 86.5 273.167 86.1667 273 86H272C271.6 86 271.167 85.3333 271 85H269.5L268.5 84C268.333 83.8333 268 83.4 268 83V81.5C268 81.1 268.333 80.3333 268.5 80C268.5 79.6667 268.6 78.9 269 78.5C269.5 78 269 76.5 269 76C269 75.6 269.333 75.8333 269.5 76L270 74.5V73.5V71.5V70.5L270.5 69V68L271 67V60V58V57L270.5 56L269.5 55V53.5V52L270.5 50.5L271.5 50L273 49.5H274.5L275.5 50L277 50.5L278.5 51.5L280 53L282.5 55C282.833 55.1667 283.5 55.6 283.5 56C283.5 56.4 284.167 56.8333 284.5 57H285.5H286.5H287.5L288.5 56L289.5 55L290.5 53.5C290.833 53.1667 291.5 52.4 291.5 52C291.5 51.6 292.167 51.1667 292.5 51L293.5 50.5C293.833 50.1667 294.5 49.4 294.5 49C294.5 48.6 295.5 47.8333 296 47.5V46.5L297.5 46L298.5 45.5H299.5C299.9 45.5 300.667 44.8333 301 44.5L302 44H303L304 44.5L304.5 45.5L305.5 46V47.5V48L306 49.5V50.5H306.5L308 51C308.333 51.1667 309 51.6 309 52C309 52.4 309.667 52.1667 310 52L311.5 50.5L312 50H312.5H313.5L314 51L315 51.5L316 52.5L316.5 54C317 54.1667 318.1 54.6 318.5 55C318.9 55.4 319 55.8333 319 56L320 56.5L320.5 58.5V60.5V62.5V65L321 66.5V67L321.5 68.5L322 69.5L322.5 71H324H325.5L326 69.5L327 69H338L338.5 68.5L341 68L342 67L343.5 66.5L345.5 66L347 65L348.5 64.5H349.5L350.5 66L351.5 67.5L352 69.5L353.5 71L355 74L356.5 75.5C356.9 75.9 357 76.3333 357 76.5L358.5 78L359.5 79L360.5 80.5L362 82.5C362.167 82.8333 362.5 83.6 362.5 84C362.5 84.5 363 86 363.5 86.5C363.9 86.9 363.667 88 363.5 88.5L364 92.5C364.167 92.8333 364.5 93.6 364.5 94C364.5 94.4 364.833 95.5 365 96C365.333 96.6667 366 98.1 366 98.5C366 99 366 100 366.5 100.5C366.9 100.9 366.333 101.333 366 101.5V103.5L365 106L363.5 109L362.5 111Z" fill="#DB7979" stroke="black"/>
<path d="M169 149L168 151C167.833 151.333 167.5 152.1 167.5 152.5C167.5 152.9 167.167 153.667 167 154V155.5C167 156 166 157.5 165.5 158C165 158.5 165 159.5 164.5 159.5C164.1 159.5 164 160.5 164 161L164.5 162.5L165 163.5L166 165V166L165.5 168V169.5L161 173.5L162.5 172.5L166.5 170L168.5 169L170 168L171.5 169L174 169.5L175.5 170H178L180 170.5H181.5H183.5L186 171H187L189 171.5H191H193H195H197L199 172.5L200.5 173H203L205 174L208 174.5L211 175L212 175.5H214L216.5 176.5H218H222.5L223.5 175V174C223.333 173.667 223 172.8 223 172V171.5L222.5 170.5L222 169L222.5 167.5L223 166V164.5L223.5 162.5C223.333 162 223 160.8 223 160C223 159.2 222.333 159.667 222 160H220C219.5 160 218.4 159.9 218 159.5C217.6 159.1 216.833 158.667 216.5 158.5L215.5 157L215 156L214.5 154L214 152V149.5C214 148.7 213.667 148.167 213.5 148L213 146L211.5 144.5L210.5 142.5L209.5 141.5L208.5 139.5L207 138V136.5V135.5L206.5 134V132V131L208 129L208.5 127L209.5 125.5L210.5 124L211 123L211.5 121.5V120.5L210.5 118.5L209.5 117.5C209.167 117.333 208.4 116.9 208 116.5C207.5 116 206.5 115.5 206 115.5C205.6 115.5 205.167 114.833 205 114.5L204 114L202 113.5L200.5 112.5L199 112L197 111.5L195 110.5H193L192 110H190L188 109.5H185.5L184.5 109C184 108.833 183 108.4 183 108C183 107.5 182 108 181.5 108C181.1 108 181 108.333 181 108.5L179.5 109L177.5 110C177 110.167 175.9 110.5 175.5 110.5C175.1 110.5 174.667 111.167 174.5 111.5L173.5 113.5L173 115L172.5 117C172.167 117.333 171.5 118.1 171.5 118.5C171.5 118.9 170.833 119.333 170.5 119.5C170.333 120 170 121.1 170 121.5C170 121.9 169.667 123.333 169.5 124V125.5L169 128.5V129.5L168 130.5V132L167.5 133V135C167.667 135.333 168 136.1 168 136.5C168 137 169 138 169 138.5C169 139 170.5 140.5 170.5 141V142.5V145L170 146.5L169.5 147.5L169 149Z" fill="#844646" stroke="black"/>
<path d="M255 150L254 152.5L253.5 153.5L252.5 154.5L252 155.5L251.5 157V159L251 160L250.5 161L250 162.5L249.5 163.5L249 164.5V165L250 165.5L254 166L255 165L256.5 164L258 163.5H261L262.5 163L263 162L264.5 161.5L265.5 162.5L267 163L267.5 164.5L268 165.5L268.5 166.5L269.5 167.5V168.5L270 170.5V171L271 172H271.5L273 170.5L274 170L275 169.5L275.5 167.5L276 165.5L277 165L277.5 164.5H278.5L280 165.5H281.5H283L284 166L285 166.5L286.5 167H288.754H290.5L293 167.5L294.5 168.5L295 168H296.5L298.5 168.5L302.5 164.5L303 163.5L304 162.5C304.333 161.833 305 160.4 305 160C305 159.6 305.667 158.833 306 158.5L307.5 157.5L308.5 154.5L310 153.5L311 152L311.5 150.5L312.18 149.5L313.5 148.5L315 147L315.5 146L316 145L317.5 143.5L316.5 143L316 141.5L314.5 140.5L312.18 138L311 137.5L309 137H307.5L306.5 137.5H305L303.5 138L302 138.5L300.5 139.74L298 141H296.5H294.5L293.5 140.5L293 139.74L292 138L291.5 136.5L292 135V133L293 132L293.5 130.5L295.5 128.5L296.5 127.5L298 127C298.167 126.565 298.6 125.657 299 125.5C299.4 125.343 299.167 124.768 299 124.5V123.5V122.5L298.5 121L297.5 119.5L296.5 118L295.5 117.5C295.167 117.5 294.5 117.4 294.5 117C294.5 116.6 293.833 116.5 293.5 116.5L292.5 115.5L293 114.5L294.5 114C294.833 113.833 295.5 113.4 295.5 113C295.5 112.6 296.167 112.167 296.5 112L297.5 111.5L299 111L302 109L302.5 108L303 106.5V104.5L303.5 103V102L304 100.5L303.5 99L302 96.5V93.5L301.5 92.5L301 92L300 91L299 90.5H297.5L296.5 90H295.5L295 89.5H294.5H293H291.5L290.5 88.5L288 88H287L285 87.5H283.5H281.5L279.5 87H277C276.6 87 276.167 86.6667 276 86.5L274 86H272.5L271 85.5L270.5 85L269 84.5L268 83.5L267.5 84L265.5 86L264.5 88L263 90.5L262 94L260.5 96.5L258.5 99.5L257 102L254 103.5L252.5 104V105L254 106.5C254.333 107.167 255 108.7 255 109.5C255 110.3 256.333 111.833 257 112.5L259.5 117L260.5 121.5V125L259.5 127.5L260.5 138L259.5 140.5L258.5 142.5L257.5 145L256 148L255 150Z" fill="#FFDDDD" stroke="black"/>
<path d="M184.5 97.5V99.5V100L183.5 100.5L182.5 101L180.5 101.5L179.5 102V103.5V104.5L180.5 105.5L181.5 106.5V107.5L181 108H182L183 108.5L184 109L186 109.5H188L189.5 110H191L193 110.5H194.5L196.5 111.5L199 112L201 113L203 114L205 114.5L206 115L206.5 116L207.5 116.5L209 117L210 118C210.167 118.333 210.6 119.1 211 119.5C211.4 119.9 211.5 120.667 211.5 121L211 121.5V123L210.5 124.5L209.5 125.5L209 126C208.833 126.333 208.5 127.1 208.5 127.5C208.5 127.9 208.167 128.333 208 128.5L207 130L206.5 131V132.5V133.5V134.5L207 135.5V137V138L207.5 139L208.5 140L209.5 141L210 142C210.167 142.333 210.6 143 211 143C211.5 143 211.5 144 211.5 144.5C211.5 144.9 212.167 145 212.5 145C212.667 145.333 213 146.1 213 146.5C213 147 213.5 147.5 213.5 148C213.5 148.4 213.833 149.167 214 149.5V151V152L214.5 153.5V154.5C214.667 154.833 215 155.6 215 156C215 156.4 215.333 156.833 215.5 157L216.5 158.5H217L218 159.5L219.5 160H221L222.5 159.5L223.5 161.5C223.5 162 223.4 163 223 163C222.6 163 222.833 164 223 164.5V166L222.5 167.5L222 169L222.5 170V171.5L223 173.5L223.5 175L224.5 174.5L226.5 173.5L228.5 172L230.5 171.5L232 170.5L235.5 168L238 167L239 166.5H241L242.5 166L243.5 165.5H245H248.5L249 165L249.5 163.5L250 162L250.5 160.5L251 159L251.5 158.5L252 155.5L252.5 154.5L253.5 153.5L254 151.5C254.333 151.167 255 150.4 255 150C255 149.6 255.333 148.833 255.5 148.5L257 145.5L258 143L259.5 140.5L260.5 137.5C260.333 137 260 135.9 260 135.5V134.5V132.5L259.5 131.5V128.5V127.5L260 126L260.5 124.5V123.5V122L260 120.5V119L259.5 117.5L259 116.5L258.5 115L257.5 113.5L256.5 112L255.5 111L255 110V109L254.5 107.5L253.5 106L252.5 105L252 104.5V104L251.5 103.5V103L251 102C250.833 101.833 250.5 101.4 250.5 101C250.5 100.6 250.167 100.167 250 100L249.5 99V97.5V96C249.5 95.6 249.167 94.8333 249 94.5L248 92.5L247.5 91L246 90L245.5 89L244.5 88L244 87.5L243 87H242.5L241 86.5L239.5 86L238 85.5L237 84.5L235 83.5C234.5 83 233.5 81.9 233.5 81.5C233.5 81.1 232.5 80.6667 232 80.5C231.833 80 231.4 79 231 79C230.6 79 230.5 78 230.5 77.5L230 76.5L229 75.5L226.5 75H225.5L224 75.5H223.5L222.5 76L221 75.5L219.5 76L218.5 77L217 78L215.5 78.5C215.167 78.6667 214.4 79 214 79C213.5 79 213 79.5 213 80C213 80.4 212.333 80.1667 212 80C211.667 79.8333 210.9 79.4 210.5 79C210 78.5 210 78.5 209.5 78.5C209.1 78.5 209 77.8333 209 77.5L207.5 76.5L206.5 75C206 74.8333 205 74.4 205 74C205 73.6 204.333 73.5 204 73.5L203 73C202.667 73 201.9 72.9 201.5 72.5C201 72 200.5 72.5 199.5 72L198.5 71.5C198.167 71.3333 197.4 71 197 71C196.6 71 196.167 70.3333 196 70L195.5 69L194 68.5L193.5 69L193 69.5V71.5C193 71.9 192.333 72 192 72V73.5V74.5L191.5 76C191.667 76.3333 192 77.1 192 77.5C192 78 192.5 78.5 192.5 79V80V81V82C192.5 82.5 191.5 82.5 191.5 83V83.5H191H189.5C189 83.5 189 84 188.5 84.5C188 85 188.5 85 188.5 85.5C188.5 85.9 188.833 86.3333 189 86.5L189.5 87L190.5 87.5V88.5L190 89.5L189 90.5L188 91L186.5 92V93L185.5 95V96.5L184.5 97.5Z" fill="#A06262" stroke="black"/>
<path d="M267.5 25H267H266L264.5 25.5C264.167 25.6667 263.4 26 263 26C262.6 26 262.167 26.3333 262 26.5L261.5 28L261 29L260.5 30L259.5 31L258 32C257.667 32 256.9 32.1 256.5 32.5C256.1 32.9 255 33 254.5 33C254.333 33.3333 253.9 34 253.5 34C253 34 253 35 252.5 35H251.5L251 34.5V34L249.5 33L248 32L246 31.5H244.5C243.833 31.6667 242.4 32 242 32C241.6 32 240.833 32.3333 240.5 32.5H239L237.5 31.5L237 31V30L236.5 28.5L236 27.5L236.5 25.5V23V22L237 21.5C237.167 21.1667 237.6 20.5 238 20.5C238.4 20.5 238.833 20.1667 239 20L240.5 19L242.5 18L244.5 16.5L246 15.5L247.5 13.5L248.5 12.5L249.5 11V10L248.5 9.5H247H245.5H243L242 9L241.5 8.5V8L241 6.5L240.5 5.5L240 3L238.5 2L237.5 1H236H235L233 2H231.5H229.5L227.5 2.5L224.5 3L223 4L221 4.5L220 6L218.5 7.5L217.5 11.5L216 13L214.5 14L213 15H211.5L210.5 14.5L209.5 14H208.5L207.5 15.5L206 16.5L205 17L204 17.5L203.5 19C203.333 19.3333 202.9 20 202.5 20C202 20 202.5 21.5 202.5 22C202.5 22.5 202 23 202 23.5C202 23.9 202.667 24.3333 203 24.5L203.5 26L204.5 27.5V28.5L205.5 29H207C207.333 29 208 29.1 208 29.5C208 29.9 208.667 29.6667 209 29.5L209.5 30L210.5 31V32.5L209.5 33.5C209.333 33.8333 209 34.6 209 35C209 35.4 208 35.8333 207.5 36L207 37.5L206.5 38.5V39.5C206.5 40 207 40.5 207 41C207 41.4 207.333 41.8333 207.5 42L208.5 43C208.667 43.1667 209 43.6 209 44V44.5L208.5 45L207.5 46V47V48L209 49L210 49.5L211 50V51L210.5 52.5L209.5 53L208 53.5H206.5H205L203.5 54H201.5H200.5H199.5L198 54.5H197.5L196.5 55.5L195.5 56.5L195 57.5V58.5C195.167 58.8333 195.5 59.6 195.5 60V61L196.5 62.5L197 63L198 64L197.5 65L197 66L196 66.5L195.5 67.5H194.5L193 69.5L194.5 68.5L195.5 69L196 70.5L197 71L198 72H200L202 73L204.5 73.5L205.5 74.5L207 75.5L208 77L209 78L210 79L212 80H213L213.5 79L215.5 78.5L217 78L218 77L220 75.5H221.5L222.5 76L223 75.5L224.5 75H225.5H227.5L229.5 76L230.5 77.5L231 79L231.5 80L232.5 81L233.5 81.5L234.5 83L236 84L237 84.5L238 85.5L242.5 87L244 87.5L244.5 88L245.5 89.5L246.5 90.5L247.5 91C247.667 91.3333 248 92.1 248 92.5C248 93 248.5 93.5 249 94C249.4 94.4 249.5 94.8333 249.5 95V97.5V99C249.667 99.5 250.1 100.5 250.5 100.5C250.9 100.5 251 101.5 251 102C251.167 102.333 251.5 103.1 251.5 103.5C251.5 103.9 251.833 103.667 252 103.5L252.5 104L254 103.5L255 103L257 102L261 95.5L262 94L262.5 92.5L263 90.5L264 89.5L265 87.5L265.5 86.5L266.5 85L267.5 84L268 83.5V83V81.5L268.5 80L269 79V77.5L269.5 76L270 74V71L270.5 70V69V67.5L271 67V59.5V58L270.5 56.5L270 55.5L269.5 55V54.5V53V52L270 51L271 50L272 49.5H273.5L275.5 50L277 50.5L278.5 51.5L279.5 52.5L281 54L282 55L283 55.5L284 57H285.5H287L288 56.5L289 55L290 54L291 52.5L291.5 51.5L292.5 51L293.5 50L294.5 48L295.5 47.5V47L296 46.5L297 45.5H298H299.5L300.5 45L301 44.5L302 44H302.5L304 44.5H304.5L305.5 42.5V41.5L305 40.5L304.5 39C304.333 39 303.9 38.9 303.5 38.5C303.1 38.1 303 38.6667 303 39H301.5L300.5 40L300 40.5L298.5 41.5C298.167 41.6667 297.4 42.1 297 42.5C296.6 42.9 296.5 42.6667 296.5 42.5L295.5 43H294.5L293.5 42L293 41.5L292 40.5L291.5 40L290.5 39L289.5 38L288.5 37.5L287.5 36V35L286.5 34L285.5 33L285 32L283.5 30.5L283 29.5L282.5 28.5L281.5 27L280.5 26.5L279.5 25L279 24C278.667 23.6667 277.9 23 277.5 23C277.1 23 277 22.3333 277 22L276 21.5L275 21L274 20.5L273.5 21L272.5 21.5V22L272 23C271.833 23.1667 271.5 23.6 271.5 24C271.5 24.5 271 24.5 270.5 24.5C270.1 24.5 269.667 24.8333 269.5 25H268.5H267.5Z" fill="#BE6E6E" stroke="black"/>
</svg>
