<svg width="29" height="28" viewBox="0 0 29 28" fill="none" xmlns="http://www.w3.org/2000/svg">
<g clip-path="url(#clip0_9_241)">
<path d="M19.6599 22.8497L18.9222 16.9428C18.8176 16.1062 18.411 15.3365 17.7788 14.7786C17.1466 14.2207 16.3324 13.913 15.4892 13.9133H12.9485C12.1057 13.9136 11.292 14.2215 10.6603 14.7794C10.0286 15.3372 9.62231 16.1066 9.5178 16.9428L8.77887 22.8497C8.73832 23.1742 8.76727 23.5036 8.86381 23.8161C8.96034 24.1286 9.12225 24.4169 9.33878 24.662C9.55531 24.9071 9.82151 25.1034 10.1197 25.2377C10.4179 25.372 10.7412 25.4413 11.0683 25.4411H17.3717C17.6986 25.4412 18.0218 25.3717 18.3199 25.2373C18.6179 25.1029 18.884 24.9067 19.1004 24.6616C19.3168 24.4165 19.4786 24.1282 19.5751 23.8158C19.6716 23.5034 19.7005 23.1741 19.6599 22.8497V22.8497Z" stroke="black" stroke-opacity="0.5" stroke-width="2" stroke-linecap="round" stroke-linejoin="round"/>
<path d="M14.22 9.30223C16.13 9.30223 17.6783 7.75388 17.6783 5.84389C17.6783 3.93391 16.13 2.38556 14.22 2.38556C12.31 2.38556 10.7617 3.93391 10.7617 5.84389C10.7617 7.75388 12.31 9.30223 14.22 9.30223Z" stroke="black" stroke-opacity="0.5" stroke-width="2"/>
<path d="M4.99776 12.7606C6.27108 12.7606 7.30331 11.7284 7.30331 10.455C7.30331 9.18171 6.27108 8.14948 4.99776 8.14948C3.72443 8.14948 2.6922 9.18171 2.6922 10.455C2.6922 11.7284 3.72443 12.7606 4.99776 12.7606Z" stroke="black" stroke-opacity="0.5" stroke-width="2"/>
<path d="M23.4422 12.7606C24.7155 12.7606 25.7478 11.7284 25.7478 10.455C25.7478 9.18171 24.7155 8.14948 23.4422 8.14948C22.1689 8.14948 21.1367 9.18171 21.1367 10.455C21.1367 11.7284 22.1689 12.7606 23.4422 12.7606Z" stroke="black" stroke-opacity="0.5" stroke-width="2"/>
<path d="M4.99776 16.2189H4.64501C4.09924 16.2188 3.57114 16.4123 3.15467 16.7651C2.73819 17.1178 2.46035 17.6068 2.37058 18.1452L1.9867 20.4507C1.93161 20.781 1.94914 21.1194 2.03808 21.4423C2.12701 21.7651 2.28521 22.0647 2.50168 22.3203C2.71814 22.5758 2.98767 22.7811 3.29152 22.9219C3.59537 23.0627 3.92625 23.1356 4.26113 23.1355H8.45609" stroke="black" stroke-opacity="0.5" stroke-width="2" stroke-linecap="round" stroke-linejoin="round"/>
<path d="M23.4422 16.2189H23.7949C24.3407 16.2188 24.8688 16.4123 25.2853 16.7651C25.7018 17.1178 25.9796 17.6068 26.0694 18.1452L26.4532 20.4507C26.5083 20.781 26.4908 21.1194 26.4019 21.4423C26.3129 21.7651 26.1547 22.0647 25.9383 22.3203C25.7218 22.5758 25.4523 22.7811 25.1484 22.9219C24.8446 23.0627 24.5137 23.1356 24.1788 23.1355H19.9839" stroke="black" stroke-opacity="0.5" stroke-width="2" stroke-linecap="round" stroke-linejoin="round"/>
</g>
<defs>
<clipPath id="clip0_9_241">
<rect width="27.6667" height="27.6667" fill="white" transform="translate(0.386658 0.0800171)"/>
</clipPath>
</defs>
</svg>
