<svg width="29" height="28" viewBox="0 0 29 28" fill="none" xmlns="http://www.w3.org/2000/svg">
<path d="M19.4342 23.5794L17.1949 21.3401L15.9758 22.5592L19.4342 26.0175L26.3508 19.1008L25.1318 17.8818L19.4342 23.5794Z" fill="black" fill-opacity="0.5"/>
<path d="M22.0279 4.40295H19.4342V3.53837C19.4328 3.08019 19.2502 2.64116 18.9262 2.31718C18.6022 1.99319 18.1632 1.81057 17.705 1.8092H10.7884C10.3302 1.81057 9.89114 1.99319 9.56716 2.31718C9.24317 2.64116 9.06055 3.08019 9.05918 3.53837V4.40295H6.46543C6.00725 4.40432 5.56823 4.58694 5.24424 4.91093C4.92025 5.23491 4.73764 5.67394 4.73627 6.13212V24.2884C4.73764 24.7466 4.92025 25.1856 5.24424 25.5096C5.56823 25.8336 6.00725 26.0162 6.46543 26.0175H14.2467V24.2884H6.46543V6.13212H9.05918V8.72587H19.4342V6.13212H22.0279V15.6425H23.7571V6.13212C23.7557 5.67394 23.5731 5.23491 23.2491 4.91093C22.9251 4.58694 22.4861 4.40432 22.0279 4.40295ZM17.705 6.9967H10.7884V3.53837H17.705V6.9967Z" fill="black" fill-opacity="0.5"/>
</svg>
