<svg width="22" height="17" viewBox="0 0 22 17" fill="none" xmlns="http://www.w3.org/2000/svg">
<path d="M1.66664 1.65582C2.09348 1.2359 2.6724 1 3.27604 1H12.1034C12.7071 1 13.286 1.2359 13.7128 1.65582C14.1397 2.07573 14.3795 2.64525 14.3795 3.2391V5.04829C14.3795 5.28572 14.1838 5.47819 13.9425 5.47819C13.7011 5.47819 13.5055 5.28572 13.5055 5.04829V3.2391C13.5055 2.87329 13.3577 2.52246 13.0948 2.2638C12.8319 2.00513 12.4753 1.85981 12.1034 1.85981H3.27604C2.90419 1.85981 2.54758 2.00513 2.28465 2.2638C2.02171 2.52246 1.874 2.87329 1.874 3.2391V14.0942C1.874 14.46 2.02171 14.8109 2.28465 15.0695C2.54758 15.3282 2.90419 15.4735 3.27604 15.4735H12.1034C12.4753 15.4735 12.8319 15.3282 13.0948 15.0695C13.3577 14.8109 13.5055 14.46 13.5055 14.0942V12.285C13.5055 12.0476 13.7011 11.8551 13.9425 11.8551C14.1838 11.8551 14.3795 12.0476 14.3795 12.285V14.0942C14.3795 14.6881 14.1397 15.2576 13.7128 15.6775C13.286 16.0974 12.7071 16.3333 12.1034 16.3333H3.27604C2.6724 16.3333 2.09348 16.0974 1.66664 15.6775C1.2398 15.2576 1 14.6881 1 14.0942V3.2391C1 2.64525 1.2398 2.07573 1.66664 1.65582Z" fill="black"/>
<path d="M16.5759 4.7443C16.7466 4.57641 17.0233 4.57641 17.1939 4.7443L20.8713 8.36202C20.8735 8.36413 20.8756 8.36626 20.8777 8.36841C20.9592 8.45158 21 8.5591 21 8.66662C21 8.66661 21 8.66664 21 8.66662C21 8.78567 20.9508 8.89347 20.8713 8.97131L17.1939 12.589C17.0233 12.7569 16.7466 12.7569 16.5759 12.589C16.4053 12.4211 16.4053 12.1489 16.5759 11.9811L19.508 9.09657H8.01156C7.77021 9.09657 7.57456 8.9041 7.57456 8.66667C7.57456 8.42924 7.77021 8.23676 8.01156 8.23676H19.508L16.5759 5.35228C16.4053 5.18439 16.4053 4.91219 16.5759 4.7443Z" fill="black"/>
<path d="M21 8.66662C21 8.5591 20.9592 8.45158 20.8777 8.36841C20.8756 8.36626 20.8735 8.36413 20.8713 8.36202L17.1939 4.7443C17.0233 4.57641 16.7466 4.57641 16.5759 4.7443C16.4053 4.91219 16.4053 5.18439 16.5759 5.35228L19.508 8.23676H8.01156C7.77021 8.23676 7.57456 8.42924 7.57456 8.66667C7.57456 8.9041 7.77021 9.09657 8.01156 9.09657H19.508L16.5759 11.9811C16.4053 12.1489 16.4053 12.4211 16.5759 12.589C16.7466 12.7569 17.0233 12.7569 17.1939 12.589L20.8713 8.97131C20.9508 8.89347 21 8.78567 21 8.66662ZM21 8.66662C21 8.66664 21 8.66661 21 8.66662ZM3.27604 1C2.6724 1 2.09348 1.2359 1.66664 1.65582C1.2398 2.07573 1 2.64525 1 3.2391V14.0942C1 14.6881 1.2398 15.2576 1.66664 15.6775C2.09348 16.0974 2.6724 16.3333 3.27604 16.3333H12.1034C12.7071 16.3333 13.286 16.0974 13.7128 15.6775C14.1397 15.2576 14.3795 14.6881 14.3795 14.0942V12.285C14.3795 12.0476 14.1838 11.8551 13.9425 11.8551C13.7011 11.8551 13.5055 12.0476 13.5055 12.285V14.0942C13.5055 14.46 13.3577 14.8109 13.0948 15.0695C12.8319 15.3282 12.4753 15.4735 12.1034 15.4735H3.27604C2.90419 15.4735 2.54758 15.3282 2.28465 15.0695C2.02171 14.8109 1.874 14.46 1.874 14.0942V3.2391C1.874 2.87329 2.02171 2.52246 2.28465 2.2638C2.54758 2.00513 2.90419 1.85981 3.27604 1.85981H12.1034C12.4753 1.85981 12.8319 2.00513 13.0948 2.2638C13.3577 2.52246 13.5055 2.87329 13.5055 3.2391V5.04829C13.5055 5.28572 13.7011 5.47819 13.9425 5.47819C14.1838 5.47819 14.3795 5.28572 14.3795 5.04829V3.2391C14.3795 2.64525 14.1397 2.07573 13.7128 1.65582C13.286 1.2359 12.7071 1 12.1034 1H3.27604Z" stroke="black" stroke-linecap="round" stroke-linejoin="round"/>
</svg>
